<?xml version="1.0" standalone="no"?>
<!DOCTYPE svg PUBLIC "-//W3C//DTD SVG 20010904//EN"
 "http://www.w3.org/TR/2001/REC-SVG-20010904/DTD/svg10.dtd">
<svg version="1.0" xmlns="http://www.w3.org/2000/svg"
 width="700.000000pt" height="700.000000pt" viewBox="0 0 700.000000 700.000000"
 preserveAspectRatio="xMidYMid meet">
<metadata>
Created by potrace 1.14, written by Peter Selinger 2001-2017
</metadata>
<g transform="translate(0.000000,700.000000) scale(0.100000,-0.100000)"
fill="#000000" stroke="none">
<path d="M2673 6660 c-50 -20 -58 -51 -60 -235 -1 -93 -2 -177 -2 -186 -1 -11
-40 -33 -118 -67 -65 -28 -219 -94 -343 -148 -124 -53 -236 -107 -250 -120
l-25 -24 -3 -1135 -2 -1135 -661 0 -661 0 6 103 c9 137 13 170 53 387 25 138
107 399 179 567 145 340 382 686 643 938 46 44 89 94 97 112 38 87 -50 177
-137 140 -41 -17 -237 -214 -348 -350 -282 -344 -487 -742 -607 -1179 -13 -49
-26 -98 -28 -110 -3 -13 -8 -34 -11 -48 -6 -25 -19 -96 -30 -155 -2 -16 -7
-50 -10 -75 -3 -25 -8 -54 -10 -65 -23 -112 -24 -675 0 -748 2 -7 6 -36 10
-66 3 -30 8 -64 10 -75 2 -12 7 -38 10 -60 3 -21 7 -41 9 -45 2 -3 7 -22 10
-41 3 -19 15 -71 26 -115 12 -44 23 -90 25 -101 3 -12 23 -74 45 -139 112
-323 268 -619 465 -883 78 -106 92 -122 209 -251 353 -389 841 -703 1344 -865
117 -38 280 -82 327 -90 17 -2 70 -11 120 -20 49 -9 108 -18 130 -21 22 -3 56
-7 75 -10 237 -32 598 -20 890 30 166 29 493 119 595 165 11 5 49 21 85 35 97
40 309 148 413 211 94 57 288 190 323 222 11 9 51 43 89 76 442 370 795 900
969 1454 26 82 73 262 82 312 2 14 9 45 14 70 8 40 12 65 25 160 2 14 7 59 10
100 4 41 9 86 11 100 5 32 5 403 0 450 -2 19 -7 65 -10 101 -4 36 -8 76 -11
90 -2 13 -9 58 -15 99 -17 108 -73 338 -113 460 -108 330 -272 647 -478 919
-122 163 -129 171 -284 327 -142 144 -165 157 -229 130 -24 -10 -42 -27 -53
-50 -28 -60 -13 -90 117 -223 243 -248 410 -481 555 -773 133 -267 235 -586
274 -865 7 -44 14 -93 16 -110 3 -16 8 -74 11 -127 l7 -98 -662 0 -661 0 0
899 c0 584 -4 909 -10 926 -11 29 -48 64 -68 65 -7 0 -20 5 -30 11 -9 5 -154
70 -322 143 l-304 133 -1 404 c-1 302 -4 410 -13 426 -30 55 -5 53 -879 52
-444 0 -818 -4 -830 -9z m1478 -209 l26 -1 0 -1420 0 -1420 -121 0 -121 0 1
432 c1 246 -3 444 -8 458 -5 14 -21 35 -36 47 -27 22 -31 22 -380 23 -316 0
-357 -2 -383 -17 -53 -31 -54 -44 -54 -512 l0 -431 -122 0 -123 0 0 1419 c0
1321 1 1420 17 1423 14 3 1232 2 1304 -1z m-1540 -508 c0 -48 0 -2257 0 -2300
l-1 -33 -260 0 -260 0 2 1076 3 1077 250 108 c138 59 253 108 258 108 4 1 7
-16 8 -36z m2091 -529 l208 -89 0 -858 0 -857 -257 2 -258 3 0 955 c-1 525 1
960 3 966 2 8 19 4 50 -10 26 -13 140 -63 254 -112z m-983 -1434 l0 -370 -212
0 -212 0 0 370 0 370 212 0 212 0 0 -370z"/>
</g>
</svg>
