<?xml version="1.0" encoding="UTF-8"?>
<!DOCTYPE svg PUBLIC "-//W3C//DTD SVG 1.1//EN" "http://www.w3.org/Graphics/SVG/1.1/DTD/svg11.dtd">
<!-- Creator: CorelDRAW X7 -->
<svg xmlns="http://www.w3.org/2000/svg" xml:space="preserve" width="0.309114in" height="0.313118in" version="1.1" style="shape-rendering:geometricPrecision; text-rendering:geometricPrecision; image-rendering:optimizeQuality; fill-rule:evenodd; clip-rule:evenodd"
viewBox="0 0 309 313"
 xmlns:xlink="http://www.w3.org/1999/xlink">
 <defs>
  <style type="text/css">
   <![CDATA[
    .fil0 {fill:yellow}
   ]]>
  </style>
 </defs>
 <g id="Layer_x0020_1">
  <metadata id="CorelCorpID_0Corel-Layer"/>
  <path class="fil0" d="M245 15c5,-11 15,-16 28,-15l0 38c74,90 23,179 -50,221 -9,-16 -17,-33 -22,-49 -2,-5 -3,-10 -4,-15 0,-4 0,-7 1,-11 5,-5 10,-10 15,-15 1,0 3,0 4,0 11,6 11,24 11,34l0 0c0,7 3,13 10,15 7,1 14,-4 16,-12l0 0 0 -1c1,-19 -3,-40 -18,-53 -3,-2 -5,-3 -7,-4 16,-27 24,-61 22,-104l-5 -29 -1 0zm-118 155c2,-2 6,1 4,3 -12,17 -17,36 -15,57 0,3 -5,4 -5,0 -2,-21 3,-42 16,-60zm-24 65c6,20 23,20 25,2 5,-34 22,-57 52,-73 6,-29 17,-54 36,-77 18,-22 -1,-28 -17,-19 -33,17 -55,46 -66,82 5,6 14,9 22,9 3,0 3,5 0,5 -9,0 -19,-3 -25,-10 -25,22 -34,48 -27,81l0 0zm34 -111l1 0c13,-25 33,-47 59,-60 22,-13 45,-1 23,26 -15,18 -24,37 -31,58l1 0c36,-2 58,14 56,57 -1,6 -11,7 -10,-2 1,-23 -5,-36 -16,-41 -17,-5 -33,9 -31,34 9,42 33,82 54,103l-8 14c-51,-7 -84,-29 -102,-74 -3,21 -28,23 -35,-3 -6,-31 0,-55 20,-77 -13,-27 -34,-25 -45,23 -4,2 -7,2 -9,-3 5,-19 12,-40 24,-47 10,-4 37,-17 42,-13 3,2 5,3 7,5l0 0zm30 134c-2,-2 3,-5 4,-2 9,19 24,32 43,40 3,2 1,6 -2,5 -20,-9 -36,-23 -45,-43l0 0zm-15 26c-30,3 -58,-3 -79,-22 11,3 23,4 32,4 3,0 2,-3 0,-3 -9,0 -22,-2 -34,-4l-2 -14c8,-2 15,-4 22,-6 2,7 6,14 12,19 9,7 21,7 30,-1 5,10 11,19 19,27l0 0zm-136 -124c-6,-7 -11,-14 -14,-23 11,6 23,9 33,11 2,0 3,-3 1,-3 -11,-2 -24,-6 -35,-12l5 -15c25,6 49,10 73,11 -9,8 -14,21 -18,33 -15,0 -30,0 -45,-2l0 0zm92 -1c-7,1 -13,2 -20,2 1,-2 2,-3 4,-5 1,-2 4,-6 7,-6 3,0 7,4 9,8l0 1 0 0zm-43 77c-15,-5 -57,-32 -65,-51 12,4 26,8 36,8 2,1 3,-3 1,-3 -11,0 -24,-4 -36,-8l3 -12c18,2 36,3 54,3 -1,2 -2,5 -2,7 6,13 12,13 24,8 1,-5 2,-11 4,-16 5,0 10,-1 15,-1 -10,17 -13,36 -10,57 -8,3 -16,5 -24,8l0 0zm171 -162c2,-3 3,-7 5,-10 -1,28 -7,55 -22,79 -6,-2 -12,-3 -19,-3 6,-16 15,-31 26,-44 5,-6 9,-15 10,-22l0 0zm41 3c-2,-3 3,-5 4,-2 11,21 12,49 8,73 -1,3 -6,2 -5,-1 4,-23 3,-49 -7,-70l0 0z"/>
 </g>
</svg>
