<?xml version="1.0" encoding="UTF-8" standalone="no"?> <svg width="64" height="64" viewBox="0 0 64 64" fill="none" xmlns="http://www.w3.org/2000/svg">
<path d="M32.0001 5.94043C27.2634 5.94204 22.6166 7.2331 18.558 9.67513C14.4994 12.1172 11.1821 15.618 8.96209 19.8022C6.74205 23.9863 5.70296 28.6959 5.95629 33.4258C6.20962 38.1557 7.74581 42.7273 10.4001 46.6504C11.1469 46.1242 12.0237 45.8126 12.9352 45.7495C13.8467 45.6865 14.758 45.8744 15.5702 46.2929C16.3824 46.7114 17.0644 47.3444 17.5421 48.1232C18.0199 48.902 18.2751 49.7968 18.2801 50.7104C18.2809 51.749 17.9518 52.7611 17.3401 53.6004C20.7158 55.8913 24.582 57.3583 28.6277 57.8835C32.6735 58.4086 36.7861 57.9773 40.6348 56.6242C44.4836 55.2711 47.9613 53.0339 50.7883 50.0924C53.6153 47.151 55.7128 43.5874 56.9123 39.688C58.1117 35.7886 58.3796 31.6622 57.6944 27.6404C57.0093 23.6186 55.3901 19.8137 52.9672 16.5314C50.5442 13.2492 47.385 10.5811 43.7435 8.74168C40.102 6.90227 36.0798 5.94281 32.0001 5.94043V5.94043Z" fill="#78B9EB"/>
<path d="M31.9999 5.00003C27.123 5.0048 22.3385 6.33041 18.1544 8.83604C13.9704 11.3417 10.5432 14.9338 8.23672 19.2308C5.93027 23.5279 4.83073 28.3694 5.05491 33.2411C5.27909 38.1129 6.81861 42.833 9.50994 46.9C8.55887 47.9176 8.04036 49.2649 8.06387 50.6575C8.08738 52.0501 8.65106 53.3792 9.63594 54.364C10.6208 55.3489 11.9498 55.9126 13.3425 55.9361C14.7351 55.9596 16.0824 55.4411 17.0999 54.49C20.6106 56.8221 24.6185 58.3 28.8028 58.8053C32.9871 59.3106 37.2316 58.8292 41.1965 57.3999C45.1615 55.9705 48.7367 53.6328 51.6361 50.5738C54.5354 47.5148 56.6784 43.8195 57.8935 39.7838C59.1085 35.748 59.3619 31.4839 58.6333 27.3326C57.9047 23.1814 56.2144 19.2583 53.6977 15.8775C51.181 12.4967 47.9078 9.75206 44.14 7.86322C40.3723 5.97437 36.2146 4.99381 31.9999 5.00003V5.00003ZM10.9999 53C10.5267 52.5256 10.2046 51.9215 10.0745 51.2642C9.94434 50.6068 10.012 49.9256 10.2688 49.3067C10.5256 48.6877 10.9601 48.1587 11.5174 47.7866C12.0747 47.4145 12.7298 47.2159 13.3999 47.2159C14.0701 47.2159 14.7252 47.4145 15.2825 47.7866C15.8398 48.1587 16.2743 48.6877 16.5311 49.3067C16.7879 49.9256 16.8555 50.6068 16.7254 51.2642C16.5953 51.9215 16.2732 52.5256 15.7999 53C15.1627 53.6351 14.2996 53.9917 13.3999 53.9917C12.5002 53.9917 11.6372 53.6351 10.9999 53V53ZM31.9999 57C27.1204 56.9997 22.3488 55.5633 18.2799 52.87C18.7595 51.8694 18.9166 50.7445 18.7297 49.6508C18.5428 48.557 18.021 47.5482 17.2364 46.7636C16.4518 45.979 15.443 45.4572 14.3492 45.2703C13.2554 45.0833 12.1306 45.2405 11.1299 45.72C8.07535 41.0671 6.66083 35.528 7.11052 29.9802C7.56022 24.4325 9.8484 19.1934 13.6125 15.0932C17.3766 10.9931 22.4013 8.26628 27.8905 7.34493C33.3797 6.42359 39.0193 7.3604 43.9158 10.0069C48.8124 12.6534 52.6857 16.8583 54.922 21.9552C57.1584 27.0521 57.6299 32.7495 56.2619 38.1448C54.8938 43.54 51.7645 48.3244 47.3696 51.7398C42.9748 55.1553 37.5659 57.0065 31.9999 57V57Z" fill="#006DF0"/>
<path d="M32.0003 11C31.7351 11 31.4808 11.1054 31.2932 11.2929C31.1057 11.4804 31.0003 11.7348 31.0003 12V31.56L20.3303 41.26C20.1811 41.3956 20.0764 41.5732 20.0299 41.7693C19.9834 41.9655 19.9973 42.1712 20.0697 42.3593C20.1422 42.5475 20.2698 42.7094 20.4359 42.8237C20.602 42.938 20.7987 42.9995 21.0003 43C21.2482 42.9994 21.4869 42.9067 21.6703 42.74L32.6703 32.74C32.7739 32.6465 32.8568 32.5324 32.9136 32.4049C32.9705 32.2775 33 32.1395 33.0003 32V12C33.0003 11.7348 32.895 11.4804 32.7074 11.2929C32.5199 11.1054 32.2655 11 32.0003 11Z" fill="#006DF0"/>
</svg>
