<?xml version="1.0" encoding="UTF-8" standalone="no"?> <svg width="64" height="64" viewBox="0 0 64 64" fill="none" xmlns="http://www.w3.org/2000/svg">
<path d="M56.6101 12.1401H40.6101C39.5492 12.1401 38.5318 12.5616 37.7817 13.3117C37.0315 14.0619 36.6101 15.0793 36.6101 16.1401C36.6101 17.201 37.0315 18.2184 37.7817 18.9686C38.5318 19.7187 39.5492 20.1401 40.6101 20.1401H56.6101C57.671 20.1401 58.6884 19.7187 59.4385 18.9686C60.1887 18.2184 60.6101 17.201 60.6101 16.1401C60.6101 15.0793 60.1887 14.0619 59.4385 13.3117C58.6884 12.5616 57.671 12.1401 56.6101 12.1401V12.1401Z" fill="#78B9EB"/>
<path d="M21.7001 35.9302H3.57007V54.0502C3.57006 54.8936 3.73652 55.7288 4.05991 56.5078C4.38329 57.2868 4.85724 57.9943 5.45458 58.5898C6.05192 59.1853 6.76092 59.657 7.54093 59.978C8.32093 60.299 9.15661 60.4628 10.0001 60.4602H28.1101V42.3402C28.1101 41.4984 27.9443 40.6649 27.6221 39.8872C27.3 39.1095 26.8278 38.4028 26.2326 37.8076C25.6374 37.2124 24.9308 36.7402 24.1531 36.4181C23.3754 36.096 22.5418 35.9302 21.7001 35.9302Z" fill="#78B9EB"/>
<path d="M27.71 2.5H8C6.54212 2.50264 5.14471 3.08295 4.11383 4.11383C3.08295 5.14471 2.50264 6.54212 2.5 8V27.71C2.5 28.1078 2.65804 28.4894 2.93934 28.7707C3.22064 29.052 3.60218 29.21 4 29.21H23.71C25.1687 29.21 26.5676 28.6305 27.5991 27.5991C28.6305 26.5676 29.21 25.1687 29.21 23.71V4C29.21 3.60218 29.052 3.22064 28.7707 2.93934C28.4894 2.65804 28.1078 2.5 27.71 2.5ZM26.21 23.71C26.21 24.0383 26.1453 24.3634 26.0197 24.6667C25.8941 24.97 25.7099 25.2456 25.4778 25.4778C25.2456 25.7099 24.97 25.8941 24.6667 26.0197C24.3634 26.1453 24.0383 26.21 23.71 26.21H5.5V8C5.5 7.33696 5.76339 6.70107 6.23223 6.23223C6.70107 5.76339 7.33696 5.5 8 5.5H26.21V23.71Z" fill="#006DF0"/>
<path d="M23.71 34.79H4C3.60218 34.79 3.22064 34.9481 2.93934 35.2294C2.65804 35.5107 2.5 35.8922 2.5 36.29V56C2.50264 57.4579 3.08295 58.8553 4.11383 59.8862C5.14471 60.9171 6.54212 61.4974 8 61.5H27.71C28.1078 61.5 28.4894 61.342 28.7707 61.0607C29.052 60.7794 29.21 60.3979 29.21 60V40.29C29.21 38.8313 28.6305 37.4324 27.5991 36.401C26.5676 35.3695 25.1687 34.79 23.71 34.79V34.79ZM26.21 58.5H8C7.33696 58.5 6.70107 58.2366 6.23223 57.7678C5.76339 57.299 5.5 56.6631 5.5 56V37.79H23.71C24.0383 37.79 24.3634 37.8547 24.6667 37.9803C24.97 38.106 25.2456 38.2901 25.4778 38.5223C25.7099 38.7544 25.8941 39.03 26.0197 39.3333C26.1453 39.6366 26.21 39.9617 26.21 40.29V58.5Z" fill="#006DF0"/>
<path d="M60 34.79H40.29C38.8313 34.79 37.4324 35.3695 36.401 36.401C35.3695 37.4324 34.79 38.8313 34.79 40.29V60C34.79 60.3979 34.9481 60.7794 35.2294 61.0607C35.5107 61.342 35.8922 61.5 36.29 61.5H56C57.4579 61.4974 58.8553 60.9171 59.8862 59.8862C60.9171 58.8553 61.4974 57.4579 61.5 56V36.29C61.5 35.8922 61.342 35.5107 61.0607 35.2294C60.7794 34.9481 60.3979 34.79 60 34.79ZM58.5 56C58.5 56.6631 58.2366 57.299 57.7678 57.7678C57.299 58.2366 56.6631 58.5 56 58.5H37.79V40.29C37.79 39.627 38.0534 38.9911 38.5223 38.5223C38.9911 38.0534 39.627 37.79 40.29 37.79H58.5V56Z" fill="#006DF0"/>
<path d="M40.29 21.3599H56C57.4587 21.3599 58.8577 20.7804 59.8891 19.749C60.9206 18.7175 61.5 17.3186 61.5 15.8599C61.5 14.4012 60.9206 13.0022 59.8891 11.9708C58.8577 10.9393 57.4587 10.3599 56 10.3599H40.29C38.8313 10.3599 37.4324 10.9393 36.401 11.9708C35.3695 13.0022 34.79 14.4012 34.79 15.8599C34.79 17.3186 35.3695 18.7175 36.401 19.749C37.4324 20.7804 38.8313 21.3599 40.29 21.3599V21.3599ZM40.29 13.3599H56C56.6631 13.3599 57.299 13.6233 57.7678 14.0921C58.2366 14.5609 58.5 15.1968 58.5 15.8599C58.5 16.5229 58.2366 17.1588 57.7678 17.6276C57.299 18.0965 56.6631 18.3599 56 18.3599H40.29C39.627 18.3599 38.9911 18.0965 38.5223 17.6276C38.0534 17.1588 37.79 16.5229 37.79 15.8599C37.79 15.1968 38.0534 14.5609 38.5223 14.0921C38.9911 13.6233 39.627 13.3599 40.29 13.3599V13.3599Z" fill="#006DF0"/>
</svg>
