<?xml version="1.0" encoding="UTF-8" standalone="no"?> <svg width="64" height="64" viewBox="0 0 64 64" fill="none" xmlns="http://www.w3.org/2000/svg">
<path d="M9.46008 43.11H43.5401V32.45L39.8401 24.73L32.9801 19.9L25.7501 18.46L16.4301 21.14L10.6001 29.02L9.46008 35.61V43.11Z" fill="#78B9EB"/>
<path d="M44.2 42.2099V35.2099C44.197 30.6643 42.455 26.292 39.3312 22.9897C36.2074 19.6874 31.9385 17.7053 27.4 17.45V15.2C27.4 14.9347 27.2947 14.6804 27.1071 14.4928C26.9196 14.3053 26.6652 14.2 26.4 14.2C26.1348 14.2 25.8805 14.3053 25.6929 14.4928C25.5054 14.6804 25.4 14.9347 25.4 15.2V17.45C20.8632 17.7052 16.5959 19.6859 13.4723 22.986C10.3488 26.2862 8.60562 30.656 8.60003 35.2V42.2C7.83837 42.2131 7.08674 42.3761 6.38808 42.6797C5.68942 42.9833 5.0574 43.4216 4.5281 43.9694C3.45915 45.0759 2.87351 46.5617 2.90003 48.0999C2.92655 49.6382 3.56306 51.1029 4.66952 52.1719C5.77599 53.2408 7.26178 53.8265 8.80003 53.7999H19.8V54.4C19.8 56.1504 20.4954 57.8291 21.7331 59.0669C22.9709 60.3046 24.6496 61 26.4 61C28.1505 61 29.8292 60.3046 31.0669 59.0669C32.3047 57.8291 33 56.1504 33 54.4V53.7999H44C45.5001 53.7692 46.9298 53.1583 47.9889 52.0957C49.0481 51.0331 49.6543 49.6014 49.6802 48.1012C49.7061 46.6011 49.1496 45.1494 48.1278 44.0508C47.1059 42.9523 45.6981 42.2925 44.2 42.2099V42.2099ZM10.6 35.2099C10.6 31.0195 12.2647 27.0007 15.2277 24.0377C18.1908 21.0746 22.2096 19.41 26.4 19.41C30.5905 19.41 34.6092 21.0746 37.5723 24.0377C40.5354 27.0007 42.2 31.0195 42.2 35.2099V42.2099H10.6V35.2099ZM31 54.4C31 55.6199 30.5154 56.79 29.6527 57.6526C28.7901 58.5153 27.62 59 26.4 59C25.18 59 24.01 58.5153 23.1473 57.6526C22.2847 56.79 21.8 55.6199 21.8 54.4V53.7999H31V54.4ZM44 51.7999H8.80003C7.79221 51.7999 6.82567 51.3996 6.11303 50.687C5.40039 49.9743 5.00003 49.0078 5.00003 48C5.00003 46.9921 5.40039 46.0256 6.11303 45.3129C6.82567 44.6003 7.79221 44.2 8.80003 44.2H44C45.0079 44.2 45.9744 44.6003 46.687 45.3129C47.3997 46.0256 47.8 46.9921 47.8 48C47.8 49.0078 47.3997 49.9743 46.687 50.687C45.9744 51.3996 45.0079 51.7999 44 51.7999V51.7999Z" fill="#006DF0"/>
<path d="M45.15 3C44.8848 3 44.6305 3.10536 44.4429 3.29289C44.2554 3.48043 44.15 3.73478 44.15 4C44.15 4.26522 44.2554 4.51957 44.4429 4.70711C44.6305 4.89464 44.8848 5 45.15 5C48.8297 5.0185 52.3523 6.49324 54.9477 9.10174C57.5431 11.7102 59.0001 15.2403 59 18.92C59 19.1852 59.1054 19.4396 59.2929 19.6271C59.4805 19.8146 59.7348 19.92 60 19.92C60.2652 19.92 60.5196 19.8146 60.7071 19.6271C60.8947 19.4396 61 19.1852 61 18.92C61.0027 14.709 59.3359 10.6688 56.3649 7.68463C53.3938 4.70049 49.3609 3.01588 45.15 3V3Z" fill="#006DF0"/>
<path d="M45.15 7.16992C44.8848 7.16992 44.6305 7.27528 44.4429 7.46281C44.2554 7.65035 44.15 7.90471 44.15 8.16992C44.15 8.43514 44.2554 8.68949 44.4429 8.87703C44.6305 9.06456 44.8848 9.16992 45.15 9.16992C47.7255 9.18577 50.19 10.22 52.0056 12.0468C53.8211 13.8735 54.8401 16.3444 54.84 18.9199C54.84 19.1851 54.9454 19.4395 55.1329 19.627C55.3205 19.8146 55.5748 19.9199 55.84 19.9199C56.1052 19.9199 56.3596 19.8146 56.5471 19.627C56.7347 19.4395 56.84 19.1851 56.84 18.9199C56.8427 15.8132 55.6138 12.8321 53.4227 10.6297C51.2315 8.42725 48.2567 7.18315 45.15 7.16992V7.16992Z" fill="#006DF0"/>
<path d="M45.15 11.3401C44.8848 11.3401 44.6305 11.4454 44.4429 11.633C44.2554 11.8205 44.15 12.0749 44.15 12.3401C44.15 12.6053 44.2554 12.8597 44.4429 13.0472C44.6305 13.2347 44.8848 13.3401 45.15 13.3401C46.6186 13.3559 48.0215 13.9511 49.0534 14.9961C50.0853 16.0411 50.6627 17.4514 50.66 18.9201C50.66 19.1853 50.7654 19.4397 50.9529 19.6272C51.1405 19.8147 51.3948 19.9201 51.66 19.9201C51.9252 19.9201 52.1796 19.8147 52.3671 19.6272C52.5547 19.4397 52.66 19.1853 52.66 18.9201C52.6654 16.9202 51.8781 14.9997 50.4705 13.5791C49.063 12.1584 47.1499 11.3533 45.15 11.3401Z" fill="#006DF0"/>
<path d="M45.12 22.26C45.7865 22.26 46.4381 22.0624 46.9923 21.6921C47.5465 21.3218 47.9784 20.7955 48.2335 20.1797C48.4885 19.5639 48.5553 18.8863 48.4252 18.2326C48.2952 17.5789 47.9743 16.9784 47.5029 16.5071C47.0316 16.0358 46.4312 15.7148 45.7775 15.5848C45.1237 15.4547 44.4461 15.5215 43.8304 15.7765C43.2146 16.0316 42.6882 16.4636 42.3179 17.0177C41.9476 17.5719 41.75 18.2235 41.75 18.89C41.7526 19.783 42.1085 20.6386 42.74 21.2701C43.3714 21.9015 44.227 22.2574 45.12 22.26V22.26ZM45.12 17.52C45.391 17.52 45.6558 17.6004 45.8811 17.7509C46.1064 17.9014 46.282 18.1154 46.3857 18.3657C46.4894 18.6161 46.5165 18.8915 46.4637 19.1573C46.4108 19.423 46.2803 19.6672 46.0887 19.8588C45.8971 20.0504 45.653 20.1808 45.3873 20.2337C45.1215 20.2866 44.8461 20.2594 44.5957 20.1557C44.3454 20.052 44.1314 19.8764 43.9809 19.6512C43.8304 19.4259 43.75 19.161 43.75 18.89C43.7526 18.5275 43.8978 18.1805 44.1542 17.9242C44.4105 17.6678 44.7575 17.5226 45.12 17.52V17.52Z" fill="#006DF0"/>
</svg>
