<?xml version="1.0" encoding="UTF-8" standalone="no"?>
<!-- Created with Inkscape (http://www.inkscape.org/) -->

<svg
   xmlns:dc="http://purl.org/dc/elements/1.1/"
   xmlns:cc="http://creativecommons.org/ns#"
   xmlns:rdf="http://www.w3.org/1999/02/22-rdf-syntax-ns#"
   xmlns:svg="http://www.w3.org/2000/svg"
   xmlns="http://www.w3.org/2000/svg"
   xmlns:sodipodi="http://sodipodi.sourceforge.net/DTD/sodipodi-0.dtd"
   xmlns:inkscape="http://www.inkscape.org/namespaces/inkscape"
   width="32"
   height="32"
   viewBox="0 0 8.4666667 8.4666667"
   version="1.1"
   id="svg1144"
   inkscape:version="0.92.3 (2405546, 2018-03-11)"
   sodipodi:docname="21-Menu.svg">
  <defs
     id="defs1138" />
  <sodipodi:namedview
     id="base"
     pagecolor="#ffffff"
     bordercolor="#666666"
     borderopacity="1.0"
     inkscape:pageopacity="0.0"
     inkscape:pageshadow="2"
     inkscape:zoom="11.313708"
     inkscape:cx="32.556015"
     inkscape:cy="8.6903871"
     inkscape:document-units="px"
     inkscape:current-layer="layer2"
     showgrid="false"
     inkscape:window-width="1920"
     inkscape:window-height="1040"
     inkscape:window-x="0"
     inkscape:window-y="0"
     inkscape:window-maximized="1"
     units="px"
     inkscape:object-nodes="true"
     inkscape:snap-bbox="true"
     inkscape:bbox-nodes="true"
     inkscape:snap-to-guides="false"
     inkscape:object-paths="true"
     inkscape:snap-smooth-nodes="true"
     inkscape:snap-intersection-paths="false"
     inkscape:snap-grids="true"
     showguides="false"
     inkscape:snap-nodes="true">
    <inkscape:grid
       type="xygrid"
       id="grid1708" />
    <sodipodi:guide
       position="0,0"
       orientation="0,32"
       id="guide840"
       inkscape:locked="false" />
    <sodipodi:guide
       position="8.4666667,0"
       orientation="-32,0"
       id="guide842"
       inkscape:locked="false" />
    <sodipodi:guide
       position="8.4666667,8.4666667"
       orientation="0,-32"
       id="guide844"
       inkscape:locked="false" />
    <sodipodi:guide
       position="0,8.4666667"
       orientation="32,0"
       id="guide846"
       inkscape:locked="false" />
  </sodipodi:namedview>
  <metadata
     id="metadata1141">
    <rdf:RDF>
      <cc:Work
         rdf:about="">
        <dc:format>image/svg+xml</dc:format>
        <dc:type
           rdf:resource="http://purl.org/dc/dcmitype/StillImage" />
        <dc:title />
      </cc:Work>
    </rdf:RDF>
  </metadata>
  <g
     inkscape:groupmode="layer"
     id="layer2"
     inkscape:label="21-Menu">
    <path
       style="opacity:1;fill:#a8c5f7;fill-opacity:1;stroke:none;stroke-width:0.52916664;stroke-linecap:butt;stroke-linejoin:round;stroke-miterlimit:4;stroke-dasharray:none;stroke-dashoffset:0;stroke-opacity:1"
       d="m 1.5875,0.79375011 h 5.2916665 c 0.4397376,0 0.7937501,0.35401249 0.7937501,0.79375009 v 5.2916665 c 0,0.4397375 -0.3540125,0.79375 -0.7937501,0.79375 H 1.5875 c -0.4397375,0 -0.79375001,-0.3540125 -0.79375001,-0.79375 V 1.5875002 c 0,-0.4397376 0.35401251,-0.79375009 0.79375001,-0.79375009 z"
       id="rect1259"
       inkscape:connector-curvature="0"
       sodipodi:nodetypes="ccccccccc" />
    <path
       id="path1261"
       d="m 1.5875002,0.79375 c -0.4397375,0 -0.79375,0.3540125 -0.79375,0.79375 v 5.2916669 c 0,0.439737 0.3540125,0.79375 0.79375,0.79375 h 0.5291667 c -0.4397375,0 -0.79375,-0.354013 -0.79375,-0.79375 V 1.5875 c 0,-0.4397375 0.3540125,-0.79375 0.79375,-0.79375 z"
       style="opacity:1;fill:#f8f8f8;fill-opacity:1;stroke:none;stroke-width:0.52916664;stroke-linecap:butt;stroke-linejoin:round;stroke-miterlimit:4;stroke-dasharray:none;stroke-dashoffset:0;stroke-opacity:1"
       inkscape:connector-curvature="0"
       sodipodi:nodetypes="ccccccccc" />
    <path
       id="path1263"
       d="m 6.3500002,0.79375 c 0.4397375,0 0.79375,0.3540125 0.79375,0.79375 v 5.2916669 c 0,0.439737 -0.3540125,0.79375 -0.79375,0.79375 h 0.5291666 c 0.4397375,0 0.79375,-0.354013 0.79375,-0.79375 V 1.5875 c 0,-0.4397375 -0.3540125,-0.79375 -0.79375,-0.79375 z"
       style="opacity:1;fill:#91b8fb;fill-opacity:1;stroke:none;stroke-width:0.52916664;stroke-linecap:butt;stroke-linejoin:round;stroke-miterlimit:4;stroke-dasharray:none;stroke-dashoffset:0;stroke-opacity:1"
       inkscape:connector-curvature="0"
       sodipodi:nodetypes="ccccccccc" />
    <path
       style="color:#000000;font-style:normal;font-variant:normal;font-weight:normal;font-stretch:normal;font-size:medium;line-height:normal;font-family:sans-serif;font-variant-ligatures:normal;font-variant-position:normal;font-variant-caps:normal;font-variant-numeric:normal;font-variant-alternates:normal;font-feature-settings:normal;text-indent:0;text-align:start;text-decoration:none;text-decoration-line:none;text-decoration-style:solid;text-decoration-color:#000000;letter-spacing:normal;word-spacing:normal;text-transform:none;writing-mode:lr-tb;direction:ltr;text-orientation:mixed;dominant-baseline:auto;baseline-shift:baseline;text-anchor:start;white-space:normal;shape-padding:0;clip-rule:nonzero;display:inline;overflow:visible;visibility:visible;opacity:1;isolation:auto;mix-blend-mode:normal;color-interpolation:sRGB;color-interpolation-filters:linearRGB;solid-color:#000000;solid-opacity:1;vector-effect:none;fill:#66a0fe;fill-opacity:1;fill-rule:nonzero;stroke:none;stroke-width:0.52916664;stroke-linecap:round;stroke-linejoin:miter;stroke-miterlimit:4;stroke-dasharray:none;stroke-dashoffset:0;stroke-opacity:1;color-rendering:auto;image-rendering:auto;shape-rendering:auto;text-rendering:auto;enable-background:accumulate"
       d="m 1.5880166,0.5291669 c -0.59000866,0 -1.05884962,0.4771101 -1.05884962,1.0588501 V 6.87865 c 0,0.588975 0.47710992,1.0588498 1.05884962,1.0588498 h 5.2906331 c 0.5817401,0 1.05885,-0.4698748 1.05885,-1.0588498 V 1.588017 c 0,-0.58174 -0.4688419,-1.0588501 -1.05885,-1.0588501 z m 0,0.5296831 h 5.2906331 c 0.2977348,0 0.5291666,0.236599 0.5291666,0.529167 V 6.87865 c 0,0.29043 -0.2314318,0.5296829 -0.5291666,0.5296829 H 1.5880166 C 1.2902819,7.4083329 1.0588499,7.16908 1.0588499,6.87865 V 1.588017 c 0,-0.292568 0.231432,-0.529167 0.5291667,-0.529167 z m 0.7927165,1.321883 c -0.3450413,0.0077 -0.3450413,0.521515 0,0.529167 h 3.7052 c 0.3450413,-0.0077 0.3450413,-0.521515 0,-0.529167 z m 0,1.5880171 c -0.3450405,0.0077 -0.3450405,0.5215138 0,0.5291659 h 3.7052 c 0.3606882,0.008 0.3606882,-0.5371661 0,-0.5291659 z m 0,1.5874997 c -0.3606882,-0.008 -0.3606882,0.5371661 0,0.5291662 h 3.7052 c 0.3606882,0.008 0.3606882,-0.5371661 0,-0.5291662 z"
       id="path1092"
       inkscape:connector-curvature="0"
       sodipodi:nodetypes="ccccccccccccccccccccccccccccccccc" />
  </g>
</svg>
