<?xml version="1.0" encoding="UTF-8" standalone="no"?> <svg  viewBox="-34 0 512 512"  xmlns="http://www.w3.org/2000/svg"><path d="m434 280h-10v-98c0-5.523438-4.476562-10-10-10h-117.871094v-79c0-.710938 0-3.429688 0-4.140625 0-8.035156 6.539063-14.578125 14.574219-14.578125h50.867187c18.984376 0 34.433594-15.445312 34.433594-34.433594 0-18.984375-15.449218-34.433594-34.433594-34.433594h-35.039062c-7.214844-3.5-15.203125-5.414062-23.425781-5.414062-8.203125 0-16.214844 1.859375-23.503907 5.40625-6.542968-3.507812-13.921874-5.40625-21.644531-5.40625-25.269531 0-45.828125 20.558594-45.828125 45.828125v7.457031c-1.726562-.449218-3.492187-.808594-5.285156-1.074218-5.996094-13.015626-19.15625-22.078126-34.402344-22.078126-.660156 0-1.316406.019532-1.96875.050782-4.085937-7.980469-10.453125-14.554688-18.492187-18.941406-10.570313-5.773438-22.753907-7.078126-34.304688-3.683594-11.554687 3.394531-21.09375 11.082031-26.863281 21.652344-4.75 8.703124-6.46875 18.503906-5.03125 28.144531-15.976562 8.363281-26.910156 25.097656-26.910156 44.347656 0 27.085937 21.640625 49.199219 48.535156 50v10.167969c0 .042968-.003906.085937-.003906.128906v2.824219c0 39.84375-9.375 79.53125-27.148438 115.175781h-70.253906c-5.523438 0-10 4.476562-10 10 0 59.296875 23.09375 115.046875 65.023438 156.976562 41.929687 41.929688 97.679687 65.023438 156.976562 65.023438s115.046875-23.09375 156.976562-65.023438c41.929688-41.929687 65.023438-97.679687 65.023438-156.976562 0-5.523438-4.476562-10-10-10zm-30-88v88h-107.871094v-88zm-203-31.316406v-8.980469c3.832031-.113281 7.558594-.648437 11.128906-1.578125v89.21875c-7.269531-24.121094-11.03125-49.289062-11.03125-74.519531v-2.824219c0-.449219-.039062-.886719-.097656-1.316406zm-73.695312 11.316406h53.886718c.160156 6.144531.546875 12.28125 1.117188 18.398438h-56.121094c.570312-6.117188.957031-12.253907 1.117188-18.398438zm148.824218-69v126.667969h-44v-90.078125c10.339844-8.917969 17-21.984375 17.371094-36.589844zm-44 146.667969h44v29.332031h-44zm0-203.839844c0-14.242187 11.585938-25.828125 25.828125-25.828125 8.199219 0 15.734375 3.765625 20.667969 10.335938 3.316406 4.414062 9.589844 5.304687 14.003906 1.988281 3.648438-2.746094 4.882813-7.503907 3.328125-11.5625 2.332031-.503907 4.726563-.761719 7.148438-.761719 10.941406 0 21.253906 5.347656 27.59375 14.308594 1.949219 2.753906 5.035156 4.222656 8.171875 4.222656 1.996094 0 4.011718-.59375 5.765625-1.835938 3.671875-2.597656 5.0625-7.21875 3.730469-11.28125h13.203124c7.957032 0 14.433594 6.476563 14.433594 14.4375 0 7.957032-6.476562 14.433594-14.433594 14.433594h-50.867187c-17.066406 0-31.277344 12.433594-34.070313 28.71875h-30.738281c-3.015625-7.453125-7.773437-14.011718-13.765625-19.183594zm-153.257812 55.875c0-16.5625 13.476562-30.035156 30.039062-30.035156 5.523438 0 10-4.480469 10-10 0-5.523438-4.476562-10-10-10-1.210937 0-2.40625.058593-3.597656.144531-.183594-4.492188.847656-8.96875 3.054688-13.015625 3.210937-5.882813 8.519531-10.160156 14.945312-12.046875 6.429688-1.890625 13.207031-1.164062 19.085938 2.046875 3.558593 1.941406 6.515624 4.664063 8.726562 7.925781-9.984375 6.824219-16.550781 18.296875-16.550781 31.277344 0 5.523438 4.476562 10 10 10 5.523437 0 10-4.476562 10-10 0-9.851562 8.015625-17.867188 17.867187-17.867188 8.160156 0 15.042969 5.507813 17.171875 12.996094.085938.574219.210938 1.132813.390625 1.671875.1875 1.039063.300782 2.105469.300782 3.199219 0 5.523438 4.476562 10 10 10 3.628906 0 6.796874-1.9375 8.550781-4.832031 11.992187 3.945312 20.675781 15.242187 20.675781 28.535156 0 15.148437-11.269531 27.707031-25.867188 29.742187 1.875-4.71875 4.707032-9.054687 8.40625-12.753906 3.90625-3.902344 3.90625-10.234375 0-14.140625s-10.238281-3.90625-14.144531 0c-10.914062 10.917969-16.925781 25.429688-16.925781 40.871094v6.578125h-53.59375v-6.578125c0-15.441406-6.011719-29.953125-16.929688-40.871094-3.90625-3.90625-10.238281-3.90625-14.140624 0-3.90625 3.902344-3.90625 10.234375 0 14.140625 3.699218 3.699219 6.527343 8.035156 8.402343 12.753906-14.59375-2.035156-25.867187-14.59375-25.867187-29.742187zm44.71875 108.695313h61.316406c4 23.988281 11.109375 47.445312 21.179688 69.601562h-103.675782c10.070313-22.15625 17.179688-45.613281 21.179688-69.601562zm-93.582032 89.601562h119.945313c7.960937 0 14.4375 6.476562 14.4375 14.4375v5.347656c0 7.960938-6.476563 14.441406-14.4375 14.441406-18.992187 0-34.441406 15.449219-34.441406 34.4375v1.003907c0 7.960937-6.476563 14.4375-14.441407 14.4375h-57.773437c-13.398437-25.34375-21.570313-53.859375-23.050781-84.105469zm69.78125 150.730469h47.390626c5.523437 0 10-4.476563 10-10 0-5.523438-4.476563-10-10-10h-69.941407c-8.003906-8.230469-15.320312-17.132813-21.839843-26.621094h45.671874c18.992188 0 34.441407-15.449219 34.441407-34.441406v-1.003907c0-7.960937 6.476562-14.4375 14.441406-14.4375 18.988281 0 34.4375-15.449218 34.4375-34.441406v-5.34375c0-5.15625-1.144531-10.046875-3.183594-14.441406h242.546875c-.332031 6.820312-1.011718 13.550781-2.007812 20.175781h-82.4375c-32.808594 0-59.503906 26.691407-59.503906 59.503907 0 4.625-3.761719 8.386718-8.386719 8.386718-23.453125 0-42.53125 19.082032-42.53125 42.53125 0 27.351563 22.25 49.605469 49.601562 49.605469h11.554688c-21.269531 7.632813-44.179688 11.796875-68.042969 11.796875-45.890625 0-88.253906-15.390625-122.210938-41.269531zm230.878907 9.472656h-52.179688c-16.324219 0-29.601562-13.28125-29.601562-29.605469 0-12.421875 10.105469-22.53125 22.53125-22.53125 15.652343 0 28.386719-12.734375 28.386719-28.386718 0-21.785157 17.722656-39.503907 39.507812-39.503907h78.371094c-12.863282 50.136719-44.53125 92.808594-87.015625 120.027344zm0 0"/><path d="m187.300781 430.730469c-2.628906 0-5.210937 1.070312-7.070312 2.929687s-2.929688 4.4375-2.929688 7.070313c0 2.628906 1.070313 5.207031 2.929688 7.070312 1.859375 1.859375 4.441406 2.929688 7.070312 2.929688 2.628907 0 5.199219-1.070313 7.070313-2.929688 1.859375-1.863281 2.929687-4.441406 2.929687-7.070312 0-2.632813-1.070312-5.210938-2.929687-7.070313s-4.441406-2.929687-7.070313-2.929687zm0 0"/><path d="m328.75 258.332031c5.523438 0 10-4.476562 10-10v-22.332031c0-5.523438-4.476562-10-10-10s-10 4.476562-10 10v22.332031c0 5.523438 4.480469 10 10 10zm0 0"/><path d="m371.375 258.332031c5.523438 0 10-4.476562 10-10v-22.332031c0-5.523438-4.476562-10-10-10s-10 4.476562-10 10v22.332031c0 5.523438 4.476562 10 10 10zm0 0"/></svg>