<?xml version="1.0" encoding="UTF-8" standalone="no"?> <svg width="64" height="64" viewBox="0 0 64 64" fill="none" xmlns="http://www.w3.org/2000/svg">
<path d="M52.16 22.36L50.31 20.51L53.31 17.51C53.4126 17.3858 53.4866 17.2406 53.527 17.0846C53.5673 16.9287 53.5728 16.7658 53.5433 16.6074C53.5137 16.4491 53.4497 16.2992 53.3558 16.1683C53.262 16.0374 53.1405 15.9287 53 15.85L57.74 11.12L59.27 12.65C59.457 12.8383 59.7111 12.9446 59.9765 12.9455C60.2418 12.9464 60.4967 12.8419 60.685 12.655C60.8733 12.468 60.9796 12.2139 60.9806 11.9485C60.9815 11.6831 60.877 11.4283 60.69 11.24L52.69 3.28995C52.5017 3.10297 52.2468 2.99846 51.9815 2.9994C51.7161 3.00033 51.462 3.10665 51.275 3.29495C51.088 3.48326 50.9835 3.73812 50.9844 4.00349C50.9854 4.26885 51.0917 4.52297 51.28 4.70995L52.81 6.23995L48.15 11C48.0681 10.8593 47.956 10.7385 47.8218 10.6464C47.6876 10.5543 47.5346 10.4931 47.3739 10.4673C47.2132 10.4415 47.0488 10.4516 46.8924 10.4971C46.7361 10.5425 46.5919 10.622 46.47 10.73L43.47 13.73L41.62 11.88C41.4326 11.6937 41.1792 11.5892 40.915 11.5892C40.6508 11.5892 40.3974 11.6937 40.21 11.88L14.66 37.41C14.4738 37.5973 14.3692 37.8508 14.3692 38.115C14.3692 38.3791 14.4738 38.6326 14.66 38.82L16.51 40.6699L13.51 43.6699C13.4163 43.7629 13.3419 43.8735 13.2911 43.9954C13.2403 44.1172 13.2142 44.2479 13.2142 44.38C13.2142 44.512 13.2403 44.6427 13.2911 44.7645C13.3419 44.8864 13.4163 44.997 13.51 45.09L15.51 47.09L3.29 59.29C3.1017 59.4783 2.99591 59.7336 2.99591 60C2.99591 60.2663 3.1017 60.5216 3.29 60.7099C3.47831 60.8983 3.7337 61.004 4 61.004C4.2663 61.004 4.5217 60.8983 4.71 60.7099L16.94 48.47L18.94 50.47C19.0334 50.5626 19.1443 50.636 19.2661 50.6857C19.3879 50.7355 19.5184 50.7607 19.65 50.7599C19.7816 50.7607 19.9121 50.7355 20.0339 50.6857C20.1557 50.636 20.2666 50.5626 20.36 50.47L23.36 47.47L25.21 49.32C25.3974 49.5062 25.6508 49.6107 25.915 49.6107C26.1792 49.6107 26.4326 49.5062 26.62 49.32L52.16 23.77C52.3463 23.5826 52.4508 23.3291 52.4508 23.065C52.4508 22.8008 52.3463 22.5473 52.16 22.36V22.36ZM54.29 7.64995L56.35 9.70995L51.61 14.44L49.61 12.44L54.29 7.64995ZM47.17 12.83L51.17 16.83L48.9 19.1L44.9 15.1L47.17 12.83ZM19.65 48.3499L15.65 44.3499L17.92 42.08L21.92 46.08L19.65 48.3499ZM25.89 47.22L16.78 38.11L40.93 14L50 23.07L25.89 47.22Z" fill="black"/>
<path d="M7.32002 16.78C4.88002 19 6.58002 23.46 10 23.32C11.55 23.32 12.79 22.49 14.4 22.51C16.01 22.53 17.34 23.21 18.84 23.31C22.18 23.47 23.9 19 21.46 16.78L17.84 13.29C16.9195 12.3933 15.6851 11.8915 14.4 11.8915C13.1149 11.8915 11.8806 12.3933 10.96 13.29L7.32002 16.78ZM16.43 14.72L20.05 18.22C20.3069 18.4659 20.4853 18.7823 20.5626 19.1294C20.6399 19.4765 20.6126 19.8387 20.4842 20.1703C20.3559 20.502 20.1321 20.7881 19.8413 20.9927C19.5504 21.1974 19.2055 21.3112 18.85 21.32C17.3922 20.8956 15.8941 20.6241 14.38 20.51C12.64 20.51 11.38 21.21 9.93002 21.32C9.57282 21.3151 9.22517 21.204 8.93132 21.0009C8.63746 20.7977 8.41069 20.5118 8.27987 20.1794C8.14905 19.8469 8.1201 19.4831 8.1967 19.1342C8.2733 18.7853 8.45198 18.4671 8.71002 18.22L12.33 14.72C12.8789 14.1861 13.6143 13.8874 14.38 13.8874C15.1457 13.8874 15.8812 14.1861 16.43 14.72V14.72Z" fill="black"/>
<path d="M20.22 11.1699C19.22 16.4399 24.6 17.1699 25.63 12.3799C26.63 7.11993 21.25 6.37993 20.22 11.1699V11.1699ZM22.22 11.5899C22.48 10.5899 22.82 10.0699 23.36 9.92993C24.2 10.2999 23.75 13.4399 22.58 13.6099C22.3 13.5599 21.92 12.7399 22.17 11.5899H22.22Z" fill="black"/>
<path d="M17.61 11.5299C21.81 11.4499 21.81 3.06994 17.61 2.99994C13.41 2.92994 13.42 11.4499 17.61 11.5299ZM17.61 4.99994C19.16 5.18994 19.15 9.33994 17.61 9.52994C16.07 9.33994 16.08 5.18994 17.61 4.99994V4.99994Z" fill="black"/>
<path d="M4.90998 15.22C9.09998 17.3 9.80998 10.17 6.74998 8.32997C2.56998 6.24997 1.84998 13.38 4.90998 15.22ZM5.43998 9.92997C5.98998 10.07 6.31998 10.62 6.57998 11.59C6.82998 12.74 6.45998 13.59 6.21998 13.59C5.67998 13.46 5.33998 12.9 5.07998 11.93C4.82998 10.8 5.20998 9.99997 5.43998 9.92997Z" fill="black"/>
<path d="M11.14 11.5299C15.34 11.4499 15.34 3.06994 11.14 2.99994C6.93999 2.92994 6.99999 11.4499 11.14 11.5299ZM11.14 4.99994C12.68 5.18994 12.68 9.33994 11.14 9.52994C9.59999 9.33994 9.59999 5.18994 11.14 4.99994V4.99994Z" fill="black"/>
<path d="M60 46.9199H53.71V40.6799C53.71 40.4147 53.6046 40.1604 53.4171 39.9728C53.2296 39.7853 52.9752 39.6799 52.71 39.6799H47.92C47.6548 39.6799 47.4004 39.7853 47.2129 39.9728C47.0254 40.1604 46.92 40.4147 46.92 40.6799V46.9199H40.68C40.4148 46.9199 40.1604 47.0253 39.9729 47.2128C39.7853 47.4004 39.68 47.6547 39.68 47.9199V52.7099C39.68 52.9751 39.7853 53.2295 39.9729 53.417C40.1604 53.6046 40.4148 53.7099 40.68 53.7099H46.92V59.9999C46.92 60.2651 47.0254 60.5195 47.2129 60.707C47.4004 60.8946 47.6548 60.9999 47.92 60.9999H52.71C52.9752 60.9999 53.2296 60.8946 53.4171 60.707C53.6046 60.5195 53.71 60.2651 53.71 59.9999V53.7099H60C60.2652 53.7099 60.5196 53.6046 60.7071 53.417C60.8946 53.2295 61 52.9751 61 52.7099V47.9199C61 47.6547 60.8946 47.4004 60.7071 47.2128C60.5196 47.0253 60.2652 46.9199 60 46.9199ZM59 51.7099H52.71C52.4448 51.7099 52.1904 51.8153 52.0029 52.0028C51.8153 52.1904 51.71 52.4447 51.71 52.7099V58.9999H48.92V52.7099C48.92 52.4447 48.8146 52.1904 48.6271 52.0028C48.4396 51.8153 48.1852 51.7099 47.92 51.7099H41.68V48.9199H47.92C48.1852 48.9199 48.4396 48.8146 48.6271 48.627C48.8146 48.4395 48.92 48.1851 48.92 47.9199V41.6799H51.71V47.9199C51.71 48.1851 51.8153 48.4395 52.0029 48.627C52.1904 48.8146 52.4448 48.9199 52.71 48.9199H59V51.7099Z" fill="black"/>
</svg>
